<svg width="70" height="70" viewBox="0 0 70 70" fill="none" xmlns="http://www.w3.org/2000/svg">
<path fill-rule="evenodd" clip-rule="evenodd" d="M27.9754 40.7079C37.4808 40.7079 50.1187 41.7783 50.1187 51.0387C50.1187 60.7936 35.3928 61.3789 29.0761 61.414L26.7827 61.414C20.0477 61.3791 5.83203 60.7971 5.83203 51.0971C5.83203 41.3312 20.558 40.7453 26.8746 40.7101L27.6335 40.708C27.7518 40.7079 27.8658 40.7079 27.9754 40.7079ZM27.9754 45.0829C19.8699 45.0829 10.207 46.1241 10.207 51.0971C10.207 55.0404 16.1862 57.0412 27.9754 57.0412C39.7645 57.0412 45.7437 55.02 45.7437 51.0387C45.7437 47.0866 39.7645 45.0829 27.9754 45.0829ZM54.5599 39.3455C62.4524 40.5268 64.1062 44.1814 64.1062 47.0368C64.1062 49.163 63.1874 52.0418 58.8037 53.7014C58.5499 53.7976 58.2874 53.8443 58.0278 53.8443C57.1441 53.8443 56.3128 53.3047 55.9832 52.4326C55.5545 51.3039 56.1232 50.038 57.252 49.6122C59.7312 48.673 59.7312 47.5268 59.7312 47.0368C59.7312 45.383 57.7741 44.2514 53.9153 43.6768C52.7195 43.4959 51.8941 42.3818 52.072 41.1889C52.2528 39.993 53.3874 39.1909 54.5599 39.3455ZM27.9754 5.83331C36.2324 5.83331 42.9526 12.5533 42.9526 20.8104C42.9699 24.7887 41.427 28.5454 38.6154 31.3746C35.8095 34.2066 32.0616 35.7729 28.0745 35.7875H27.9754C19.7154 35.7875 12.9954 29.0675 12.9954 20.8104C12.9954 12.5533 19.7154 5.83331 27.9754 5.83331ZM48.6475 9.11106C54.3788 10.0502 58.5379 14.9531 58.5379 20.7661C58.5263 26.614 54.16 31.6365 48.3792 32.4473C48.2771 32.4619 48.175 32.4677 48.0729 32.4677C46.9996 32.4677 46.0634 31.6773 45.9088 30.5836C45.7425 29.3877 46.5738 28.2794 47.7696 28.1131C51.4096 27.6027 54.1571 24.444 54.1629 20.7631C54.1629 17.1056 51.5438 14.0198 47.9417 13.4306C46.7488 13.2323 45.9409 12.1094 46.1363 10.9165C46.3317 9.72356 47.4604 8.92148 48.6475 9.11106ZM27.9754 10.2083C22.1274 10.2083 17.3704 14.9654 17.3704 20.8104C17.3704 26.6554 22.1274 31.4125 27.9754 31.4125H28.0658C30.8774 31.4008 33.5258 30.2954 35.512 28.2916C37.5012 26.2937 38.5891 23.6366 38.5775 20.8191C38.5775 14.9654 33.8204 10.2083 27.9754 10.2083Z" fill="#FD6F00"/>
</svg>
