<svg width="130" height="130" viewBox="0 0 130 130" fill="none" xmlns="http://www.w3.org/2000/svg">
<path d="M130 65C130 100.899 100.899 130 65 130C29.1015 130 0 100.899 0 65C0 29.1015 29.1015 0 65 0C100.899 0 130 29.1015 130 65ZM13 65C13 93.7188 36.2812 117 65 117C93.7188 117 117 93.7188 117 65C117 36.2812 93.7188 13 65 13C36.2812 13 13 36.2812 13 65Z" fill="#D9D9D9" fill-opacity="0.2"/>
<path d="M130 65C130 100.899 100.899 130 65 130C29.1015 130 0 100.899 0 65C0 29.1015 29.1015 0 65 0C100.899 0 130 29.1015 130 65ZM13 65C13 93.7188 36.2812 117 65 117C93.7188 117 117 93.7188 117 65C117 36.2812 93.7188 13 65 13C36.2812 13 13 36.2812 13 65Z" fill="url(#paint0_linear_1_11487)"/>
<path d="M52.4606 54.9692L62.4914 75.031M52.4606 75.031L62.4914 54.9692M87.5686 52.4615V77.5387C87.5686 80.199 86.5118 82.7504 84.6306 84.6316C82.7495 86.5127 80.1981 87.5696 77.5377 87.5696H52.4606C49.8002 87.5696 47.2488 86.5127 45.3677 84.6316C43.4865 82.7504 42.4297 80.199 42.4297 77.5387V52.4615C42.4297 49.8012 43.4865 47.2498 45.3677 45.3686C47.2488 43.4875 49.8002 42.4307 52.4606 42.4307H77.5377C80.1981 42.4307 82.7495 43.4875 84.6306 45.3686C86.5118 47.2498 87.5686 49.8012 87.5686 52.4615Z" stroke="#959595" stroke-width="4" stroke-linecap="round" stroke-linejoin="round"/>
<path d="M77.5387 65.0002V73.5264C77.5387 73.724 77.4998 73.9197 77.4241 74.1022C77.3485 74.2848 77.2377 74.4507 77.098 74.5904C76.9583 74.7301 76.7924 74.8409 76.6098 74.9165C76.4273 74.9921 76.2316 75.0311 76.034 75.0311H72.5232C71.1931 75.0311 69.9174 74.5027 68.9768 73.5621C68.0362 72.6215 67.5078 71.3458 67.5078 70.0156C67.5078 68.6855 68.0362 67.4098 68.9768 66.4692C69.9174 65.5286 71.1931 65.0002 72.5232 65.0002H77.5387ZM77.5387 65.0002V57.4771" stroke="#959595" stroke-width="4" stroke-linecap="round" stroke-linejoin="round"/>
<defs>
<linearGradient id="paint0_linear_1_11487" x1="3.40116" y1="12.2641" x2="130.606" y2="21.9712" gradientUnits="userSpaceOnUse">
<stop stop-color="#FD6F00"/>
<stop offset="1" stop-color="#E46400"/>
</linearGradient>
</defs>
</svg>
