<svg width="130" height="130" viewBox="0 0 130 130" fill="none" xmlns="http://www.w3.org/2000/svg">
<path d="M130 65C130 100.899 100.899 130 65 130C29.1015 130 0 100.899 0 65C0 29.1015 29.1015 0 65 0C100.899 0 130 29.1015 130 65ZM13 65C13 93.7188 36.2812 117 65 117C93.7188 117 117 93.7188 117 65C117 36.2812 93.7188 13 65 13C36.2812 13 13 36.2812 13 65Z" fill="#D9D9D9" fill-opacity="0.2"/>
<path d="M130 65C130 100.899 100.899 130 65 130C29.1015 130 0 100.899 0 65C0 29.1015 29.1015 0 65 0C100.899 0 130 29.1015 130 65ZM13 65C13 93.7188 36.2812 117 65 117C93.7188 117 117 93.7188 117 65C117 36.2812 93.7188 13 65 13C36.2812 13 13 36.2812 13 65Z" fill="url(#paint0_linear_1_11478)"/>
<path fill-rule="evenodd" clip-rule="evenodd" d="M66.8785 73.4585C68.6158 74.8519 70.7674 75.6274 72.9941 75.6628C75.2209 75.6981 77.396 74.9912 79.1766 73.6535C80.9571 72.3159 82.2417 70.4236 82.8279 68.2751C83.4141 66.1266 83.2684 63.8442 82.4138 61.7876C81.6993 60.0605 80.5163 58.5674 78.9983 57.4768C80.2932 56.5487 81.3481 55.3252 82.0756 53.9078C82.803 52.4904 83.182 50.9199 83.1812 49.3268C83.1812 46.6664 82.1244 44.115 80.2432 42.2339C78.3621 40.3527 75.8107 39.2959 73.1503 39.2959H56.8502C54.7265 39.2953 52.6575 39.9687 50.941 41.2191C49.2245 42.4696 47.9491 44.2325 47.2986 46.2541C46.6481 48.2756 46.6559 50.4515 47.3211 52.4683C47.9862 54.4851 49.2742 56.2388 50.9997 57.4768C49.7053 58.4055 48.6507 59.6292 47.9233 61.0464C47.1958 62.4637 46.8164 64.0339 46.8164 65.6269C46.8164 67.22 47.1958 68.7901 47.9233 70.2074C48.6507 71.6247 49.7053 72.8483 50.9997 73.777C49.6032 74.779 48.4877 76.1231 47.76 77.6803C47.0324 79.2374 46.7171 80.9554 46.8443 82.6695C46.9716 84.3835 47.5371 86.0361 48.4867 87.4688C49.4363 88.9014 50.7381 90.066 52.2673 90.8508C53.7964 91.6357 55.5015 92.0144 57.2191 91.9508C58.9367 91.8871 60.6091 91.3832 62.076 90.4874C63.5428 89.5915 64.7548 88.3337 65.5958 86.8348C66.4368 85.3358 66.8785 83.6459 66.8785 81.9271V73.4585ZM56.8477 43.0575C55.1849 43.0575 53.5903 43.718 52.4146 44.8937C51.2389 46.0694 50.5784 47.664 50.5784 49.3268C50.5784 50.9895 51.2389 52.5841 52.4146 53.7598C53.5903 54.9355 55.1849 55.5961 56.8477 55.5961H63.117V43.0575H56.8477ZM63.117 75.6578H56.8477C55.6077 75.6578 54.3956 76.0255 53.3646 76.7144C52.3337 77.4032 51.5301 78.3824 51.0556 79.5279C50.5811 80.6735 50.4569 81.934 50.6988 83.1502C50.9407 84.3663 51.5378 85.4834 52.4146 86.3601C53.2914 87.2369 54.4085 87.834 55.6246 88.0759C56.8407 88.3178 58.1013 88.1937 59.2468 87.7192C60.3924 87.2446 61.3715 86.4411 62.0604 85.4101C62.7493 84.3791 63.117 83.167 63.117 81.9271V75.6578ZM56.8477 59.3576C55.1849 59.3576 53.5903 60.0181 52.4146 61.1939C51.2389 62.3696 50.5784 63.9642 50.5784 65.6269C50.5784 67.2896 51.2389 68.8843 52.4146 70.06C53.5903 71.2357 55.1849 71.8962 56.8477 71.8962H63.117V59.3576H56.8477ZM66.8785 65.6269C66.8785 67.29 67.5392 68.8849 68.7151 70.0609C69.8911 71.2368 71.486 71.8975 73.1491 71.8975C74.8121 71.8975 76.4071 71.2368 77.583 70.0609C78.759 68.8849 79.4196 67.29 79.4196 65.6269C79.4196 63.9639 78.759 62.3689 77.583 61.193C76.4071 60.017 74.8121 59.3564 73.1491 59.3564C71.486 59.3564 69.8911 60.017 68.7151 61.193C67.5392 62.3689 66.8785 63.9639 66.8785 65.6269ZM73.1478 55.5961C74.8105 55.5961 76.4052 54.9355 77.5809 53.7598C78.7566 52.5841 79.4171 50.9895 79.4171 49.3268C79.4171 47.664 78.7566 46.0694 77.5809 44.8937C76.4052 43.718 74.8105 43.0575 73.1478 43.0575H66.8785V55.5961H73.1478Z" fill="#959595"/>
<defs>
<linearGradient id="paint0_linear_1_11478" x1="3.40116" y1="12.2641" x2="130.606" y2="21.9712" gradientUnits="userSpaceOnUse">
<stop stop-color="#FD6F00"/>
<stop offset="1" stop-color="#E46400"/>
</linearGradient>
</defs>
</svg>
