<svg width="130" height="130" viewBox="0 0 130 130" fill="none" xmlns="http://www.w3.org/2000/svg">
<path d="M130 65C130 100.899 100.899 130 65 130C29.1015 130 0 100.899 0 65C0 29.1015 29.1015 0 65 0C100.899 0 130 29.1015 130 65ZM13 65C13 93.7188 36.2812 117 65 117C93.7188 117 117 93.7188 117 65C117 36.2812 93.7188 13 65 13C36.2812 13 13 36.2812 13 65Z" fill="#D9D9D9" fill-opacity="0.2"/>
<path d="M90.6437 117.58C92.2173 120.807 90.8857 124.731 87.5181 125.975C80.3697 128.615 72.7962 129.983 65.1421 130C55.3161 130.021 45.6131 127.815 36.7627 123.546C27.9124 119.278 20.1449 113.058 14.0445 105.355C7.944 97.6522 3.66932 88.6664 1.54184 79.0735C-0.585633 69.4805 -0.510539 59.5301 1.76148 49.9704C4.0335 40.4107 8.44331 31.4904 14.6593 23.8805C20.8753 16.2705 28.7358 10.1688 37.6496 6.03429C44.5931 2.81365 52.035 0.851904 59.6292 0.222255C63.2068 -0.0743645 66.0728 2.91942 66.0108 6.50873C65.9488 10.098 62.9783 12.9154 59.4093 13.3014C53.7833 13.9098 48.2795 15.4341 43.1197 17.8274C35.9886 21.1351 29.7003 26.0164 24.7275 32.1044C19.7546 38.1923 16.2268 45.3285 14.4092 52.9763C12.5916 60.6241 12.5315 68.5844 14.2335 76.2588C15.9355 83.9331 19.3552 91.1217 24.2356 97.2841C29.1159 103.446 35.3299 108.422 42.4102 111.837C49.4905 115.252 57.2529 117.017 65.1137 117C70.8015 116.987 76.4337 116.042 81.7895 114.215C85.187 113.056 89.0701 114.353 90.6437 117.58Z" fill="url(#paint0_linear_1_11509)"/>
<path d="M75.03 65.0001V75.031M75.03 57.477V57.502M87.5686 52.4615V77.5387C87.5686 80.199 86.5118 82.7504 84.6306 84.6316C82.7495 86.5127 80.1981 87.5696 77.5377 87.5696H52.4606C49.8002 87.5696 47.2488 86.5127 45.3677 84.6316C43.4865 82.7504 42.4297 80.199 42.4297 77.5387V52.4615C42.4297 49.8012 43.4865 47.2498 45.3677 45.3686C47.2488 43.4875 49.8002 42.4307 52.4606 42.4307H77.5377C80.1981 42.4307 82.7495 43.4875 84.6306 45.3686C86.5118 47.2498 87.5686 49.8012 87.5686 52.4615Z" stroke="#959595" stroke-width="4" stroke-linecap="round" stroke-linejoin="round"/>
<path d="M52.4609 75.031L55.2821 67.5078M55.2821 67.5078L59.9841 54.9692L64.6861 67.5078M55.2821 67.5078H64.6861M67.5072 75.031L64.6861 67.5078" stroke="#959595" stroke-width="4" stroke-linecap="round" stroke-linejoin="round"/>
<defs>
<linearGradient id="paint0_linear_1_11509" x1="3.40116" y1="12.2641" x2="130.606" y2="21.9712" gradientUnits="userSpaceOnUse">
<stop stop-color="#FD6F00"/>
<stop offset="1" stop-color="#E46400"/>
</linearGradient>
</defs>
</svg>
