<svg width="130" height="130" viewBox="0 0 130 130" fill="none" xmlns="http://www.w3.org/2000/svg">
<path d="M130 65C130 100.899 100.899 130 65 130C29.1015 130 0 100.899 0 65C0 29.1015 29.1015 0 65 0C100.899 0 130 29.1015 130 65ZM13 65C13 93.7188 36.2812 117 65 117C93.7188 117 117 93.7188 117 65C117 36.2812 93.7188 13 65 13C36.2812 13 13 36.2812 13 65Z" fill="#D9D9D9" fill-opacity="0.2"/>
<path d="M123.5 65C127.09 65 130.034 67.9175 129.675 71.4894C128.615 82.0523 124.98 92.2304 119.046 101.112C111.903 111.801 101.752 120.132 89.8744 125.052C77.9972 129.972 64.9279 131.259 52.3191 128.751C39.7104 126.243 28.1285 120.052 19.0381 110.962C9.94765 101.872 3.757 90.2896 1.24896 77.6809C-1.25908 65.0721 0.0281343 52.0028 4.94783 40.1256C9.86753 28.2484 18.1987 18.0968 28.8879 10.9545C37.7696 5.01996 47.9477 1.38453 58.5106 0.324705C62.0825 -0.0336793 65 2.91015 65 6.5C65 10.0899 62.0786 12.9581 58.5168 13.4057C50.5294 14.4094 42.8529 17.2583 36.1103 21.7636C27.559 27.4774 20.894 35.5987 16.9583 45.1005C13.0225 54.6022 11.9927 65.0577 13.9992 75.1447C16.0056 85.2317 20.9581 94.4972 28.2304 101.77C35.5028 109.042 44.7683 113.994 54.8553 116.001C64.9423 118.007 75.3978 116.977 84.8995 113.042C94.4013 109.106 102.523 102.441 108.236 93.8896C112.742 87.1471 115.591 79.4706 116.594 71.4832C117.042 67.9214 119.91 65 123.5 65Z" fill="url(#paint0_linear_1_11498)"/>
<path d="M87.5686 52.4615V77.5387C87.5686 80.199 86.5118 82.7504 84.6306 84.6316C82.7495 86.5127 80.1981 87.5696 77.5377 87.5696H52.4606C49.8002 87.5696 47.2488 86.5127 45.3677 84.6316C43.4865 82.7504 42.4297 80.199 42.4297 77.5387V52.4615C42.4297 49.8012 43.4865 47.2498 45.3677 45.3686C47.2488 43.4875 49.8002 42.4307 52.4606 42.4307H77.5377C80.1981 42.4307 82.7495 43.4875 84.6306 45.3686C86.5118 47.2498 87.5686 49.8012 87.5686 52.4615Z" stroke="#959595" stroke-width="4" stroke-linecap="round" stroke-linejoin="round"/>
<path d="M52.4609 75.031V65.0001M52.4609 65.0001V54.9692H57.4764C58.8065 54.9692 60.0822 55.4976 61.0228 56.4382C61.9634 57.3788 62.4918 58.6545 62.4918 59.9847C62.4918 61.3148 61.9634 62.5905 61.0228 63.5311C60.0822 64.4717 58.8065 65.0001 57.4764 65.0001H52.4609ZM77.5381 62.4924C76.7707 60.9552 75.1984 59.9847 73.4806 59.9847H72.5227C71.525 59.9847 70.5683 60.381 69.8628 61.0864C69.1574 61.7918 68.7611 62.7486 68.7611 63.7462C68.7611 64.7439 69.1574 65.7006 69.8628 66.4061C70.5683 67.1115 71.525 67.5078 72.5227 67.5078H73.7765C74.7742 67.5078 75.7309 67.9041 76.4364 68.6096C77.1418 69.315 77.5381 70.2718 77.5381 71.2694C77.5381 72.267 77.1418 73.2238 76.4364 73.9292C75.7309 74.6347 74.7742 75.031 73.7765 75.031H72.8186C71.9761 75.031 71.1503 74.7963 70.4336 74.3534C69.717 73.9105 69.1379 73.2768 68.7611 72.5233" stroke="#959595" stroke-width="4" stroke-linecap="round" stroke-linejoin="round"/>
<defs>
<linearGradient id="paint0_linear_1_11498" x1="3.40116" y1="12.2641" x2="130.606" y2="21.9712" gradientUnits="userSpaceOnUse">
<stop stop-color="#FD6F00"/>
<stop offset="1" stop-color="#E46400"/>
</linearGradient>
</defs>
</svg>
