<svg width="130" height="130" viewBox="0 0 130 130" fill="none" xmlns="http://www.w3.org/2000/svg">
<path d="M129.998 64.6604C129.998 100.203 101.185 129.017 65.6416 129.017C30.0985 129.017 1.28516 100.203 1.28516 64.6604C1.28516 29.1173 30.0985 0.303955 65.6416 0.303955C101.185 0.303955 129.998 29.1173 129.998 64.6604ZM14.1564 64.6604C14.1564 93.0949 37.2071 116.146 65.6416 116.146C94.076 116.146 117.127 93.0949 117.127 64.6604C117.127 36.2259 94.076 13.1752 65.6416 13.1752C37.2071 13.1752 14.1564 36.2259 14.1564 64.6604Z" fill="#D9D9D9" fill-opacity="0.2"/>
<path fill-rule="evenodd" clip-rule="evenodd" d="M52.7607 45.9167C61.163 44.9854 69.6425 44.9854 78.0448 45.9167C79.6488 46.0943 81.1461 46.8073 82.2949 47.9408C83.4436 49.0742 84.1767 50.5618 84.3758 52.1633C85.3712 60.6748 85.3712 69.2734 84.3758 77.785C84.1767 79.3865 83.4436 80.8741 82.2949 82.0075C81.1461 83.141 79.6488 83.854 78.0448 84.0316C69.6425 84.963 61.163 84.963 52.7607 84.0316C51.1567 83.854 49.6594 83.141 48.5107 82.0075C47.3619 80.8741 46.6288 79.3865 46.4297 77.785C45.4343 69.2734 45.4343 60.6748 46.4297 52.1633C46.6288 50.5618 47.3619 49.0742 48.5107 47.9408C49.6594 46.8073 51.1567 46.0943 52.7607 45.9167ZM78.4569 42.2175C69.7807 41.2556 61.0248 41.2556 52.3486 42.2175C47.3533 42.7736 43.3189 46.7087 42.733 51.7288C41.7036 60.529 41.7036 69.4193 42.733 78.2195C43.3189 83.2396 47.3508 87.1747 52.3486 87.7333C61.0248 88.6941 69.7807 88.6941 78.4569 87.7333C83.4522 87.1747 87.4866 83.2396 88.0725 78.2195C89.1018 69.4193 89.1018 60.529 88.0725 51.7288C87.4866 46.7087 83.4547 42.7736 78.4569 42.215M58.8856 73.6637H55.5538V55.5025C56.7554 55.2841 58.4213 55.1202 60.6881 55.1202C63.146 55.1202 64.9484 55.6391 66.1227 56.6222C67.2151 57.5235 67.9252 58.9709 67.9252 60.6914C67.9252 62.4393 67.379 63.8867 66.3412 64.8699C65.0006 66.2081 62.9002 66.8362 60.5242 66.8362C59.8961 66.8362 59.3226 66.8089 58.8856 66.727V73.6637ZM60.8221 57.6873C59.8961 57.6873 59.2406 57.7693 58.8856 57.8512V64.0779C59.2952 64.1871 59.8414 64.2144 60.5242 64.2144C63.0367 64.2144 64.5661 62.9855 64.5661 60.828C64.5661 58.7797 63.146 57.6873 60.8246 57.6873M72.62 73.6637H69.2609V64.6514C69.2609 62.8489 69.2361 61.5654 69.1517 60.3637H72.0738L72.1831 62.9036H72.2923C72.9478 61.0192 74.5044 60.0633 75.9246 60.0633C76.2523 60.0633 76.4459 60.0906 76.719 60.1452V63.3132C76.3953 63.2419 76.0649 63.2053 75.7334 63.204C74.1221 63.204 73.0297 64.2417 72.7293 65.7438C72.6616 66.0857 72.625 66.4331 72.62 66.7816V73.6637Z" fill="#959595"/>
<path d="M113.867 94.4143C116.906 96.2589 117.898 100.24 115.76 103.079C110.267 110.371 103.269 116.431 95.2152 120.832C85.273 126.264 74.0729 128.976 62.7469 128.693C51.4209 128.409 40.3704 125.141 30.7124 119.218C21.0543 113.295 13.1309 104.928 7.74304 94.9616C2.3552 84.9951 -0.306144 73.783 0.0279954 62.4584C0.362135 51.1338 3.67992 40.098 9.646 30.4666C15.6121 20.8352 24.015 12.9494 34.0055 7.60634C42.0988 3.27791 51.0016 0.742418 60.1108 0.140175C63.6573 -0.094303 66.4451 2.91683 66.3243 6.46908C66.2036 10.0213 63.2163 12.7613 59.6767 13.0844C52.8376 13.7086 46.1698 15.6971 40.0757 18.9564C32.0833 23.2308 25.361 29.5394 20.5881 37.2446C15.8152 44.9497 13.161 53.7783 12.8937 62.838C12.6264 71.8977 14.7554 80.8674 19.0657 88.8405C23.376 96.8137 29.7147 103.508 37.4412 108.246C45.1676 112.984 54.008 115.599 63.0688 115.825C72.1296 116.052 81.0897 113.883 89.0434 109.537C95.108 106.223 100.424 101.733 104.692 96.3531C106.901 93.5686 110.829 92.5698 113.867 94.4143Z" fill="url(#paint0_linear_1_11520)"/>
<defs>
<linearGradient id="paint0_linear_1_11520" x1="3.36749" y1="12.1427" x2="129.313" y2="21.7537" gradientUnits="userSpaceOnUse">
<stop stop-color="#FD6F00"/>
<stop offset="1" stop-color="#E46400"/>
</linearGradient>
</defs>
</svg>
